<?xml version="1.0" encoding="UTF-8" standalone="no"?>
<!-- Created with Inkscape (http://www.inkscape.org/) -->

<svg
   width="16"
   height="16"
   viewBox="0 0 16 16"
   version="1.1"
   id="svg5"
   xml:space="preserve"
   inkscape:export-filename="cat.svg"
   inkscape:export-xdpi="3"
   inkscape:export-ydpi="3"
   inkscape:version="1.2 (dc2aeda, 2022-05-15)"
   sodipodi:docname="cat.svg"
   xmlns:inkscape="http://www.inkscape.org/namespaces/inkscape"
   xmlns:sodipodi="http://sodipodi.sourceforge.net/DTD/sodipodi-0.dtd"
   xmlns:xlink="http://www.w3.org/1999/xlink"
   xmlns="http://www.w3.org/2000/svg"
   xmlns:svg="http://www.w3.org/2000/svg"><sodipodi:namedview
     id="namedview7"
     pagecolor="#ffffff"
     bordercolor="#000000"
     borderopacity="0.25"
     inkscape:showpageshadow="2"
     inkscape:pageopacity="0.0"
     inkscape:pagecheckerboard="0"
     inkscape:deskcolor="#d1d1d1"
     inkscape:document-units="px"
     showgrid="false"
     inkscape:zoom="16.272667"
     inkscape:cx="15.762628"
     inkscape:cy="12.874349"
     inkscape:window-width="1512"
     inkscape:window-height="831"
     inkscape:window-x="0"
     inkscape:window-y="38"
     inkscape:window-maximized="0"
     inkscape:current-layer="layer2" /><defs
     id="defs2"><linearGradient
       id="linearGradient28045"
       inkscape:swatch="solid"><stop
         style="stop-color:#b3b3b3;stop-opacity:1;"
         offset="0"
         id="stop28043" /></linearGradient><linearGradient
       inkscape:collect="always"
       xlink:href="#linearGradient28045"
       id="linearGradient28047"
       x1="41.914558"
       y1="254.17091"
       x2="469.20126"
       y2="254.17091"
       gradientUnits="userSpaceOnUse"
       gradientTransform="matrix(0.02789747,0,0,0.03003354,1.0099775,0.46417323)" /></defs><g
     inkscape:groupmode="layer"
     id="layer2"
     inkscape:label="icon"><path
       style="fill:#606060;fill-opacity:1;stroke:url(#linearGradient28047);stroke-width:0.353;stroke-dasharray:none;paint-order:stroke fill markers;stroke-linecap:butt;stroke-linejoin:miter"
       d="m 6.5420999,4.3891398 c 0,0 0.7218702,-0.1608182 1.6458626,-0.2251456 0.9239928,-0.064328 1.3859894,0.2894724 1.3859894,0.2894724 0,0 0.2887471,-0.2894724 0.7796191,-0.8362518 0.49087,-0.5467793 0.779619,-1.2222135 1.472613,-1.8654835 0.692994,-0.6432708 1.559238,-0.99706927 1.559238,-0.99706927 0,0 0.548622,0.86841507 0.635246,1.47952177 0.08662,0.6111067 0.144373,1.7368302 -0.08662,2.3801002 -0.230999,0.6432709 -0.577496,2.0906286 -0.577496,2.0906286 0,0 0.433121,1.3508677 0.433121,1.9298111 0,0.5789433 -0.317622,1.9619743 -0.779619,2.6052443 -0.461996,0.643271 -2.107859,1.897649 -2.656479,2.444428 -0.5486205,0.54678 -1.6458622,1.350867 -2.0789835,1.576013 -0.4331225,0.225144 -1.0683671,0.257307 -1.4726138,0 C 6.3977263,15.0031 5.3004846,14.166849 4.5786156,13.684396 3.856746,13.201943 3.1348764,11.818912 2.932753,11.368622 2.7306291,10.918334 2.4996312,10.049918 2.4130068,9.1493396 2.3701586,8.7039036 2.7306291,7.2195292 2.7306291,7.2195292 c 0,0 -0.3464969,-2.0584651 -0.4619965,-3.1520251 -0.115499,-1.0935594 -0.115499,-2.5409178 0,-2.9268802 L 2.3841322,0.75466203 c 0,0 0.8373686,0.1608176 1.2704898,0.64327017 0.4331219,0.4824532 1.8768612,2.1227925 2.2522333,2.4444275 0.375372,0.3216345 0.6352446,0.5467801 0.6352446,0.5467801 z"
       id="path356"
       sodipodi:nodetypes="cscsscsscsssssssscsscssc"
       inkscape:label="shape" /><g
       id="g1275"
       inkscape:label="right eye"
       transform="matrix(0.0347293,0,0,0.0416759,-1.2502887,-2.185473)"><path
         style="fill:#000000;fill-opacity:1;stroke:#000000;stroke-width:0.168;paint-order:stroke fill markers"
         d="m 282.08509,295.22935 c 0,0 -1.16935,-21.51611 10.52418,-33.91126 7.61087,-8.06753 18.47579,-13.5645 37.18545,-15.90321 18.70966,-2.33871 41.629,10.52418 41.629,10.52418 l -10.29032,0.93548 c 0,0 -1.16935,17.54031 -13.79837,25.72579 -11.5856,7.50918 -26.89514,7.01612 -32.50804,6.54838 -5.61289,-0.46774 -20.11288,-7.24999 -20.11288,-7.24999 z"
         id="path8948"
         sodipodi:nodetypes="cssccsscc" /><path
         style="fill:#a6cd30;fill-opacity:1;stroke:#000000;stroke-width:0.168;paint-order:stroke fill markers"
         d="m 295.66393,273.15933 c 0,0 3.10408,10.08827 13.19235,12.02832 10.08828,1.94005 24.05665,4.26811 34.53293,-3.49209 10.47628,-7.76021 16.29644,-19.40052 14.7444,-24.83267 -1.55204,-5.43215 -7.76021,-8.53623 -13.96838,-9.31225 -6.20816,-0.77602 -22.89261,0.38801 -31.81685,3.49209 -6.5557,2.28024 -15.13241,8.14822 -17.07246,12.02833 -1.94005,3.8801 0.38801,10.08827 0.38801,10.08827 z"
         id="path1117"
         sodipodi:nodetypes="cssssssc"
         inkscape:label="eye" /><path
         style="fill:#000000;fill-opacity:1;stroke:#000000;stroke-width:0.168;paint-order:stroke fill markers"
         d="m 328.10958,250.0634 c -4.16055,0.8608 -5.30829,4.87788 -5.30829,8.3211 0,3.44321 -0.28694,8.89497 2.29547,11.33391 2.58242,2.43894 3.44322,4.59095 4.73442,3.15628 1.29121,-1.43467 4.01709,-6.88643 4.16055,-11.04698 0.14347,-4.16055 -0.39706,-8.05588 -1.43467,-9.6123 -1.14774,-1.72161 -4.44748,-2.15201 -4.44748,-2.15201 z"
         id="path1220"
         sodipodi:nodetypes="csssssc"
         inkscape:label="path1220" /></g><g
       id="g1271"
       inkscape:label="left eye"
       transform="matrix(0.0347293,0,0,0.0416759,-0.79968618,-2.242293)"><path
         style="fill:#000000;fill-opacity:1;stroke:#000000;stroke-width:0.168;paint-order:stroke fill markers"
         d="m 201.59659,289.99973 c 0,0 0.46774,-29.70159 -3.97581,-33.44352 -4.44354,-3.74193 -23.85481,-15.2016 -34.14513,-16.13708 -10.29031,-0.93548 -20.58062,0.70161 -26.42739,4.91129 -5.84677,4.20967 2.33871,4.20967 2.33871,4.20967 0,0 -0.23387,1.87097 -0.23387,3.27419 0,1.40323 -1.40323,12.39515 6.54838,20.34676 7.9516,7.9516 16.37095,15.90321 28.7661,15.43547 12.39515,-0.46775 23.62095,-6.54839 23.62095,-6.54839 z"
         id="path1331"
         inkscape:label="eye shadow" /><path
         style="fill:#b0c727;fill-opacity:0.986348;stroke:#000000;stroke-width:0.160191;paint-order:stroke fill markers"
         d="m 198.89723,270.57849 c 0,0 -2.82164,10.09028 -11.99198,12.03071 -9.17035,1.94044 -21.86774,4.26896 -31.39078,-3.49278 -9.52305,-7.76175 -14.81363,-19.40438 -13.40281,-24.83761 1.41082,-5.43323 7.05411,-8.53792 12.6974,-9.3141 5.64328,-0.77617 20.80961,0.38809 28.92184,3.49279 5.95919,2.28069 13.75551,8.14984 15.51904,12.03072 1.76352,3.88087 -0.35271,10.09027 -0.35271,10.09027 z"
         id="path1117-0"
         sodipodi:nodetypes="cssssssc"
         inkscape:label="eye" /><path
         style="fill:#000000;fill-opacity:1;stroke:#000000;stroke-width:0.148741;paint-order:stroke fill markers"
         d="m 176.09737,246.71199 c 3.49439,1.19103 4.06239,4.91214 3.70166,8.00274 -0.36076,3.0906 -0.68466,8.01291 -3.16509,9.94239 -2.48045,1.92948 -3.44755,3.77457 -4.4097,2.35696 -0.96216,-1.4176 -2.73952,-6.58517 -2.42724,-10.33405 0.31229,-3.74892 1.18609,-7.19098 2.2431,-8.48366 1.16922,-1.4299 4.05727,-1.48438 4.05727,-1.48438 z"
         id="path1220-3"
         sodipodi:nodetypes="csssssc"
         inkscape:label="path1220"
         inkscape:transform-center-x="57.384341"
         inkscape:transform-center-y="-7.0303016" /></g><path
       style="fill:#000000;fill-opacity:1;stroke:#000000;stroke-width:0.00669364;paint-order:stroke fill markers"
       d="m 7.104402,13.05373 c 0,0 -0.2840401,-0.228517 -0.3615048,-0.441802 -0.077465,-0.21328 0,-0.578911 -0.051646,-0.716021 -0.051645,-0.137111 -0.180752,-0.258986 -0.2969501,-0.213282 -0.1161988,0.0457 -0.2840401,0.13711 -0.2840401,0.13711 L 5.8907779,11.636921 c 0,0 0.232396,-0.396097 0.4518819,-0.426567 0.2194851,-0.03047 0.7617422,-0.09141 1.0199598,0 0.2582186,0.09141 0.593901,0.380862 0.658456,0.502739 0.064553,0.121877 -0.15493,0.213284 -0.15493,0.213284 0,0 -0.038733,-0.19805 -0.232397,-0.19805 -0.1936635,0 -0.3873263,0.01524 -0.3744159,0.19805 0.012913,0.182813 0.2194852,0.258986 0.2194852,0.426566 0,0.16758 -0.02582,0.30469 -0.3744159,0.700787 z"
       id="path8973"
       inkscape:label="nose" /><path
       style="fill:#000000;fill-opacity:1;stroke:#000000;stroke-width:0.00565216;paint-order:stroke fill markers"
       d="m 6.0705235,14.091844 c 0,0 0.718129,-0.312467 0.819116,-0.437457 0.1009862,-0.124986 0.1683114,-0.637436 0.1683114,-0.637436 l 0.1683108,-0.02499 c 0,0 -0.044885,0.437458 0.2019738,0.61244 0.2468569,0.174983 1.0771933,0.574942 1.0771933,0.574942 l -0.044885,0.0875 c 0,0 -0.9313226,-0.51245 -1.2791665,-0.462456 C 6.8335335,13.854377 6.104184,14.17935 6.104184,14.17935 Z"
       id="path8975"
       inkscape:label="mouth" /><g
       id="g8983"
       inkscape:label="ushi"
       transform="matrix(0.03187735,0,0,0.03550808,-0.35897203,-0.30673392)"><path
         style="fill:#242424;fill-opacity:1;stroke:#000000;stroke-width:0.168;paint-order:stroke fill markers"
         d="m 88.70345,41.88774 c 7.039956,-2.463985 12.31992,-3.16798 19.00788,1.055994 6.68796,4.223973 97.1514,91.167436 97.1514,91.167436 0,0 -24.28785,4.22397 -47.16771,20.41587 -22.87986,16.1919 -50.33569,48.2237 -50.33569,48.2237 0,0 -20.063872,-52.44767 -22.879854,-84.12748 C 81.663493,86.943461 88.70345,41.88774 88.70345,41.88774 Z"
         id="path8977" /><path
         style="fill:#242424;fill-opacity:1;stroke:#000000;stroke-width:0.168;paint-order:stroke fill markers"
         d="m 327.35797,136.57515 c 0,0 34.14379,-45.407716 41.53574,-55.263654 7.39196,-9.855939 26.04784,-29.215819 34.49579,-33.791791 8.44795,-4.575971 25.69584,-10.207936 25.69584,-10.207936 0,0 15.8399,10.207936 18.30388,44.703722 2.46399,34.495789 -3.16798,53.855669 -13.37591,78.495509 -10.20794,24.63985 -14.07992,39.07176 -14.07992,39.07176 0,0 -9.15194,-12.31992 -38.01576,-35.55178 -28.86382,-23.23185 -54.55966,-27.45583 -54.55966,-27.45583 z"
         id="path8979" /></g></g></svg>
